<svg xmlns="http://www.w3.org/2000/svg" version="1.1" xmlns:xlink="http://www.w3.org/1999/xlink" xmlns:svgjs="http://svgjs.dev/svgjs" width="1000" height="1125" viewBox="0 0 1000 1125"><g transform="matrix(1,0,0,1,0,0)"><svg viewBox="0 0 320 360" data-background-color="#ffffff" preserveAspectRatio="xMidYMid meet" height="1125" width="1000" xmlns="http://www.w3.org/2000/svg" xmlns:xlink="http://www.w3.org/1999/xlink"><g id="tight-bounds" transform="matrix(1,0,0,1,0,0)"><svg viewBox="0 0 320 360" height="360" width="320"><g><svg></svg></g><g><svg viewBox="0 0 320 360" height="360" width="320"><g><path xmlns="http://www.w3.org/2000/svg" d="M297.491 100.645c-12.426-21.51-112.674-79.355-137.491-79.355-24.817 0-125.028 57.845-137.491 79.355-11.591 20.02-11.591 138.726 0 158.746 12.463 21.474 112.674 79.319 137.491 79.319 24.817 0 125.064-57.845 137.491-79.355 11.591-20.02 11.591-138.69 0-158.71zM309.481 93.705c-14.461-24.998-119.469-86.295-149.481-86.295-30.012 0-135.02 61.297-149.481 86.295-14.025 24.199-14.025 148.391 0 172.59 14.461 24.998 119.469 86.295 149.481 86.295 30.012 0 135.02-61.297 149.481-86.259 14.025-24.235 14.025-148.427 0-172.626zM300.906 261.353c-12.753 22.055-115.472 81.317-140.906 81.318-25.434 0-128.153-59.298-140.906-81.354-11.881-20.529-11.881-142.178 0-162.707 12.753-22.019 115.472-81.281 140.906-81.281 25.434 0 128.153 59.298 140.906 81.318 11.881 20.529 11.881 142.178 0 162.706z" fill="#2a160c" fill-rule="nonzero" stroke="none" stroke-width="1" stroke-linecap="butt" stroke-linejoin="miter" stroke-miterlimit="10" stroke-dasharray="" stroke-dashoffset="0" font-family="none" font-weight="none" font-size="none" text-anchor="none" style="mix-blend-mode: normal" data-fill-palette-color="tertiary"></path></g><g transform="matrix(1,0,0,1,48.000000000000014,145.88736629198755)"><svg viewBox="0 0 223.99999999999997 68.22526741602489" height="68.22526741602489" width="223.99999999999997"><g><svg viewBox="0 0 224.00000000000003 68.2252674160249" height="68.22526741602489" width="223.99999999999997"><g transform="matrix(1,0,0,1,0,42.165952325086025)"><svg viewBox="0 0 224.00000000000003 26.05931509093888" height="26.05931509093888" width="224.00000000000003"><g id="textblocktransform"><svg viewBox="0 0 224.00000000000003 26.05931509093888" height="26.05931509093888" width="224.00000000000003" id="textblock"><g><svg viewBox="0 0 224.00000000000003 26.05931509093888" height="26.05931509093888" width="224.00000000000003"><g transform="matrix(1,0,0,1,0,0)"><svg width="224.00000000000003" viewBox="2.0999999046325684 -34.900001525878906 305.1300048828125 35.5" height="26.05931509093888" data-palette-color="#ffffff"><path d="M16.5 0.6Q12.55 0.6 9.28-0.63 6-1.85 4.05-4.25 2.1-6.65 2.1-10.05L2.1-10.05 2.15-11.15 9.5-11.15 9.45-10.35Q9.45-8.15 11.4-6.85 13.35-5.55 16.85-5.55L16.85-5.55Q20.55-5.55 22.2-6.53 23.85-7.5 23.85-9.15L23.85-9.15Q23.85-10.6 22.78-11.58 21.7-12.55 20.08-13.13 18.45-13.7 15.6-14.5L15.6-14.5Q11.55-15.65 9.05-16.7 6.55-17.75 4.75-19.83 2.95-21.9 2.95-25.3L2.95-25.3Q2.95-30 6.75-32.45 10.55-34.9 16.85-34.9L16.85-34.9Q22.8-34.9 26.58-32.38 30.35-29.85 30.35-24.8L30.35-24.8 30.35-24.2 23.15-24.2 23.15-24.65Q23.15-26.55 21.43-27.65 19.7-28.75 16.75-28.75L16.75-28.75Q13.6-28.75 11.93-27.9 10.25-27.05 10.25-25.55L10.25-25.55Q10.25-24.4 11.25-23.58 12.25-22.75 13.75-22.23 15.25-21.7 18-20.95L18-20.95Q22.1-19.85 24.73-18.78 27.35-17.7 29.25-15.6 31.15-13.5 31.15-10.1L31.15-10.1Q31.15-4.6 27.23-2 23.3 0.6 16.5 0.6L16.5 0.6ZM42.55 0L33.45-34.3 41.2-34.3 46.15-13.2Q46.5-11.8 46.95-8.4L46.95-8.4 47.2-8.4Q47.65-11.8 48-13.2L48-13.2 53.05-34.3 61.8-34.3 66.8-13.2Q67.1-11.9 67.6-8.4L67.6-8.4 67.85-8.4Q68.25-11.6 68.65-13.2L68.65-13.2 73.75-34.3 80.45-34.3 71.35 0 63.5 0 57.85-21.85Q57.4-23.5 57-26.7L57-26.7 56.8-26.7Q56.3-23.25 55.95-21.85L55.95-21.85 50.4 0 42.55 0ZM83.9 0L83.9-34.3 91.15-34.3 91.15 0 83.9 0ZM97.79 0L97.79-34.3 122.64-34.3 122.64-28.15 105.04-28.15 105.04-19.7 120.79-19.7 120.79-13.55 105.04-13.55 105.04 0 97.79 0ZM136.64 0L136.64-28.05 126.04-28.05 126.04-34.3 154.49-34.3 154.49-28.05 143.89-28.05 143.89 0 136.64 0ZM188.14 0.6Q171.54 0.6 171.54-17.15L171.54-17.15Q171.54-26.05 175.89-30.48 180.24-34.9 188.14-34.9L188.14-34.9Q192.49-34.9 195.96-33.43 199.44-31.95 201.46-28.93 203.49-25.9 203.49-21.55L203.49-21.55 196.04-21.55Q196.04-24.9 193.89-26.83 191.74-28.75 188.29-28.75L188.29-28.75Q183.59-28.75 181.29-25.95 178.99-23.15 178.99-17.9L178.99-17.9 178.99-16.4Q178.99-5.55 188.29-5.55L188.29-5.55Q191.94-5.55 194.11-7.45 196.29-9.35 196.29-12.7L196.29-12.7 203.49-12.7Q203.49-8.3 201.49-5.33 199.49-2.35 196.04-0.88 192.59 0.6 188.14 0.6L188.14 0.6ZM205.63 0L219.03-34.3 228.13-34.3 241.53 0 233.63 0 231.18-6.55 215.58-6.55 213.13 0 205.63 0ZM217.83-12.6L228.88-12.6 225.63-21.3Q225.03-22.9 223.48-28.05L223.48-28.05 223.23-28.05Q221.68-22.9 221.08-21.3L221.08-21.3 217.83-12.6ZM244.98 0L244.98-34.3 263.18-34.3Q268.93-34.3 271.83-31.48 274.73-28.65 274.73-23.55L274.73-23.55Q274.73-16.35 268.73-13.95L268.73-13.95 275.73 0 267.88 0 261.83-12.8 252.23-12.8 252.23 0 244.98 0ZM252.23-18.85L262.53-18.85Q264.88-18.85 266.13-20.1 267.38-21.35 267.38-23.55L267.38-23.55Q267.38-25.75 266.13-26.95 264.88-28.15 262.53-28.15L262.53-28.15 252.23-28.15 252.23-18.85ZM289.38 0L289.38-28.05 278.78-28.05 278.78-34.3 307.23-34.3 307.23-28.05 296.63-28.05 296.63 0 289.38 0Z" opacity="1" transform="matrix(1,0,0,1,0,0)" fill="#ffffff" class="wordmark-text-0" data-fill-palette-color="quaternary" id="text-0"></path></svg></g></svg></g></svg></g></svg></g><g transform="matrix(1,0,0,1,81.20711794994881,0)"><svg viewBox="0 0 61.585764100102395 36.01397345567754" height="36.01397345567754" width="61.585764100102395"><g><svg xmlns="http://www.w3.org/2000/svg" xmlns:xlink="http://www.w3.org/1999/xlink" xmlns:a="http://ns.adobe.com/AdobeSVGViewerExtensions/3.0/" version="1.1" x="8" y="0" viewBox="0 0 37.78099822998047 29.847999572753906" enable-background="new -1 -7.152 40 40" xml:space="preserve" height="36.01397345567754" width="45.585764100102395" class="icon-icon-0" data-fill-palette-color="quaternary" id="icon-0"><polygon points="29.671,24.107 37.781,8.659 8.609,8.659 4.067,0 0,0 12.651,24.107 29.671,24.107 " fill="#ffffff" data-fill-palette-color="quaternary"></polygon><path d="M17.318 29.848c0.625 0 1.123-0.225 1.547-0.648 0.424-0.425 0.648-0.948 0.648-1.547 0-0.624-0.224-1.148-0.648-1.573-0.425-0.424-0.923-0.648-1.547-0.648-0.623 0-1.148 0.225-1.571 0.648-0.425 0.425-0.624 0.949-0.624 1.573 0 0.599 0.199 1.122 0.624 1.547C16.169 29.623 16.695 29.848 17.318 29.848L17.318 29.848z" fill="#ffffff" data-fill-palette-color="quaternary"></path><path d="M25.179 29.848c-0.623 0-1.123-0.225-1.548-0.648-0.424-0.425-0.648-0.948-0.648-1.547 0-0.624 0.225-1.148 0.648-1.573 0.425-0.424 0.925-0.648 1.548-0.648 0.624 0 1.147 0.225 1.572 0.648 0.425 0.425 0.625 0.949 0.625 1.573 0 0.599-0.2 1.122-0.625 1.547C26.326 29.623 25.803 29.848 25.179 29.848L25.179 29.848z" fill="#ffffff" data-fill-palette-color="quaternary"></path></svg></g></svg></g><g><rect width="81.20711794994878" height="2.3500559281140423" y="32.66391752756349" x="142.79288205005122" fill="#99592a" data-fill-palette-color="accent"></rect><rect width="81.20711794994878" height="2.3500559281140423" y="32.66391752756349" x="2.842170943040401e-14" fill="#99592a" data-fill-palette-color="accent"></rect><rect width="81.20711794994878" height="2.3500559281140423" y="27.963805671335408" x="142.79288205005122" fill="#99592a" data-fill-palette-color="accent"></rect><rect width="81.20711794994878" height="2.3500559281140423" y="27.963805671335408" x="2.842170943040401e-14" fill="#99592a" data-fill-palette-color="accent"></rect></g></svg></g></svg></g></svg></g><defs></defs></svg><rect width="320" height="360" fill="none" stroke="none" visibility="hidden"></rect></g></svg></g></svg>